<svg width="10" height="10" viewBox="0 0 10 10" fill="none" xmlns="http://www.w3.org/2000/svg">
<path d="M4.99998 0.833332C2.59831 0.833332 0.645813 2.78583 0.645813 5.1875C0.645813 7.54333 2.48831 9.45 4.88998 9.5325C4.96331 9.52333 5.03665 9.52333 5.09165 9.5325C5.10998 9.5325 5.11915 9.5325 5.13748 9.5325C5.14665 9.5325 5.14665 9.5325 5.15581 9.5325C7.50248 9.45 9.34498 7.54333 9.35415 5.1875C9.35415 2.78583 7.40165 0.833332 4.99998 0.833332Z" fill="#EFEEE0"/>
</svg>
<svg width="14" height="10" viewBox="0 0 14 10" fill="none" xmlns="http://www.w3.org/2000/svg">
<path d="M11.6567 1.97083C9.09919 0.265831 4.92836 0.265831 2.35253 1.97083C1.18836 2.75 0.546692 3.80416 0.546692 4.93166C0.546692 6.05917 1.18836 7.10417 2.34336 7.87417C3.62669 8.73583 5.31336 9.16667 7.00003 9.16667C8.68669 9.16667 10.3734 8.73583 11.6567 7.87417C12.8117 7.095 13.4534 6.05 13.4534 4.91333C13.4442 3.78583 12.8117 2.74083 11.6567 1.97083Z" fill="#EFEEE0"/>
</svg>
